<?xml version="1.0" encoding="UTF-8"?>
<!DOCTYPE svg PUBLIC "-//W3C//DTD SVG 1.1//EN" "http://www.w3.org/Graphics/SVG/1.1/DTD/svg11.dtd">
<!-- Creator: CorelDRAW 2026 -->
<svg xmlns="http://www.w3.org/2000/svg" xml:space="preserve" width="1330px" height="339px" version="1.1" style="shape-rendering:geometricPrecision; text-rendering:geometricPrecision; image-rendering:optimizeQuality; fill-rule:evenodd; clip-rule:evenodd"
viewBox="0 0 974.03 248.53"
 xmlns:xlink="http://www.w3.org/1999/xlink"
 xmlns:xodm="http://www.corel.com/coreldraw/odm/2003">
 <defs>
  <style type="text/css">
   <![CDATA[
    .fil1 {fill:#BE63D1}
    .fil2 {fill:#E561A7}
    .fil0 {fill:white}
   ]]>
  </style>
    <mask id="id0">
  <linearGradient id="id1" gradientUnits="userSpaceOnUse" x1="175.11" y1="79.47" x2="35.27" y2="182.92">
   <stop offset="0" style="stop-opacity:1; stop-color:white"/>
   <stop offset="1" style="stop-opacity:0; stop-color:white"/>
  </linearGradient>
     <rect style="fill:url(#id1)" x="-0.87" y="-0.87" width="209.45" height="250.26"/>
    </mask>
 </defs>
 <g id="Camada_x0020_1">
  <metadata id="CorelCorpID_0Corel-Layer"/>
  <path class="fil0" d="M559.58 134.65c0,51.63 69.37,75.1 108.01,45.74 3.92,-2.98 16.29,-13.38 15.79,-17.17 -0.87,-1.65 -1.96,-4.4 -4.39,-4.4 -23.38,0 -18.23,-2.03 -27.09,4.41 -2.09,1.52 -4.42,2.62 -7.09,3.91 -31.21,15.12 -59.49,-13.07 -57.39,-22.97 12.18,0 89.67,0.78 99.64,0.02 2.35,-0.18 3.87,-0.66 4.76,-2.57 3.52,-7.5 -1.78,-25.17 -5.01,-31.64 -6.68,-13.4 -19.95,-23.87 -33.66,-29.34 -41.9,-16.73 -93.57,9.57 -93.57,54.01zm-110.62 -30.04l-1.43 -0.84c0.63,-2.76 3.8,-8.79 5.09,-11.61 1.73,-3.83 3.21,-8.83 2.2,-13.19 -3.08,0 -20.92,-0.52 -22.97,0.48 -1.81,0.88 -2.67,3.04 -2.67,5.38l0 102.56c0,7.95 9.82,5.87 20.51,5.87 6.13,0 5.91,-4.82 5.86,-10.99 -0.08,-12.24 -0.65,-41.61 0.02,-50.53 0.57,-7.54 6.33,-17.9 11.68,-22.02 14.92,-11.47 33.27,-17.11 48.82,-4.09 5.7,4.78 9.87,15.11 9.82,23.87l0.13 59.22c1.31,6.52 8.36,4.54 20.37,4.54 2.47,0 5.13,-1.3 5.13,-3.67l0 -63.73c0,-22.21 -19.41,-44.08 -41.93,-48.92 -12.8,-2.75 -28.35,-0.62 -38.67,3.48 -5.13,2.04 -7.93,3.56 -11.64,7.41 -4.83,4.99 -5.19,8.4 -7.59,13.65 -1.17,2.55 -1.4,2.65 -2.73,3.13zm-194.87 27.11c0,20.48 6.61,32.94 20.67,45.26 23.59,20.66 60.84,21.44 86.89,3.69 9.48,-6.46 23.24,-21.85 10.38,-21.85 -32.57,0 -13.71,-0.88 -32.71,8.32 -33.62,16.27 -72.95,-16.79 -56.78,-47.26 1.14,-2.14 2.09,-4.08 3.59,-5.93 15.34,-18.81 42.92,-20.77 59.96,-8.3 8.55,6.25 5.72,4.09 27.41,4.09 2.91,0 3.66,-2.85 3.66,-5.13 0,-3.15 -9.45,-11.57 -11.94,-13.7 -14.88,-12.75 -40.28,-18.25 -60.75,-13.57 -8,1.84 -12.13,3.75 -18.65,6.99 -16.68,8.31 -31.73,27.99 -31.73,47.39zm654.93 0.73c-0.73,2.73 -2.91,5.06 -4.5,7.22 -5.14,6.94 -33.59,46.54 -33.59,48.46 0,7.27 11.24,5.13 21.24,5.13 4.2,0 5.82,-4.06 8.93,-8.66 5.95,-8.79 19.64,-24.44 19.64,-33.1l0 -3.67 2.93 0c1.47,6.29 0.96,8.9 4.24,14.08l19.39 27.5c4.06,5.64 6.36,3.85 21.06,3.85 3.53,0 6.43,-2.6 5.5,-6.15l-32.61 -46.6c-6.38,-8.99 -7.95,-5 4.71,-22.4l25.59 -36.68c2.31,-8.28 -12.5,-6.12 -20.77,-6.12 -3.03,0 -3.75,1.23 -5.06,3l-10.9 15.47c-10.07,15.11 -6.92,5.87 -11.15,24.02l-2.93 0c0,-6.7 -0.41,-9.48 -4.38,-15.4 -2.3,-3.42 -4.37,-6.41 -6.92,-9.93 -2.4,-3.33 -4.46,-5.97 -6.72,-9.39 -6.35,-9.63 -5.25,-7.77 -23.73,-7.77 -3.57,0 -5.95,2.47 -5.55,5.66 0.28,2.3 12.84,19.03 15.07,22.18 6.87,9.75 13.87,19.38 20.51,29.3zm-203.66 -56.41c-4.64,2.23 -6.59,-0.92 -6.59,13.19 0,4.92 1.68,7.21 6.59,7.32l0 90.84c0,8.14 9.01,5.87 21.25,5.87 6.09,0 5.15,-5.07 5.13,-10.99l0 -49.09c0,-10.62 -0.55,-22.64 -0.1,-33.06 0.17,-3.88 0.52,-3.62 4.41,-3.65 24.17,-0.18 21.33,3.46 21.33,-16.03 0,-5.54 -11.59,-3.67 -20.52,-3.67 -5.02,0 -7.68,5.12 -10.99,7.33l-1.31 -1.61c0.77,-2.39 -0.4,-0.13 1.3,-2.07 0.54,-0.63 1.55,-1.5 2.21,-2.19 8.1,-8.45 -0.06,-12.61 7.71,-17.92 10.02,-6.85 25.26,2.87 25.26,-8.45 0,-17.16 1.69,-17.58 -12.45,-17.58 -18.02,0 -34.55,6.76 -41.06,22.69 -2.53,6.18 -2.17,10.54 -2.17,19.07zm63.01 -27.84l0 109.16c0,25.4 19.13,35.9 42.49,35.9 7.5,0 12.88,-7.21 11.23,-14.1 -0.83,-3.45 -2.99,-6.06 -5.65,-7.61 -3.08,-1.8 -7.05,-1.56 -11.46,-1.72 -11.47,-0.43 -11,-9.08 -10.98,-15.4l0.02 -105.51c0.04,-5.14 -0.2,-7.57 -2.72,-10.46 -6.44,-7.4 -22.93,-5.64 -22.93,9.74zm66.66 43.96l0 85.71c0,21.61 26.37,18.23 26.37,2.93l0 -91.57c0,-3.72 -1.53,-6.2 -3.45,-8.27 -7.34,-7.94 -22.92,-4.88 -22.92,11.2zm-444.68 -4.4l0 94.51c0,11.6 26.37,20.08 26.37,-7.33l0 -79.85c0,-27.17 -26.37,-19.27 -26.37,-7.33zm458.6 -16.85c16.09,0 17.23,-26.37 -0.73,-26.37 -7.38,0 -13.02,6.22 -13.03,13.19 -0.02,7.17 6.09,13.18 13.76,13.18zm-458.6 -15.38l0 4.39c0,5.38 7.03,10.99 12.45,10.99 6.04,0 13.19,-5.26 13.19,-10.99l0 -4.39c0,-5.57 -6.18,-10.99 -13.19,-10.99 -5.91,0 -12.45,5.38 -12.45,10.99zm235.88 42.08c18.44,0 34.02,10.37 39.15,24.62 0.25,0.7 0.16,1.41 -0.27,2.01 -0.42,0.6 -1.06,0.93 -1.8,0.93l-70.49 0c-1.95,0 -3.63,0.87 -4.77,2.46l-5.34 7.47 -2.39 -1.7 5.87 -8.23c3.93,-15.75 20.37,-27.56 40.04,-27.56z"/>
  <g id="_2522405342864">
   <path class="fil1" d="M125.52 0c3.37,0 6.11,2.73 6.11,6.11 0,3.37 -2.74,6.11 -6.11,6.11l-0.05 0 0.01 0.01c-2.68,3.39 -5.36,6.78 -7.72,10.01 -2.37,3.23 -4.42,6.3 -6.93,10.55 -1.65,2.8 -3.5,6.11 -5.41,9.6 12.25,0.41 22.99,2.1 30.29,4.55 13.02,0.25 20.12,0.76 26.12,1.24 7.19,0.58 12.81,1.1 17.55,2.14 4.74,1.04 8.59,2.6 11.45,4.27 2.87,1.66 4.74,3.43 6.67,6.04 1.92,2.6 3.9,6.03 5.15,10.1 1.25,4.06 1.77,8.74 2.45,15.82 0.67,7.08 1.51,16.56 2.03,25.41 0.52,8.85 0.73,17.07 0.47,26.03 -0.26,8.95 -0.99,18.64 -1.67,26.13 -0.68,7.5 -1.3,12.81 -1.98,17.13 -0.67,4.32 -1.4,7.66 -2.55,10.78 -1.14,3.12 -2.7,6.04 -4.27,8.12 -1.56,2.08 -3.12,3.33 -4.79,4.43 -1.66,1.09 -3.43,2.03 -5.41,2.81 -1.98,0.78 -4.17,1.4 -7.91,2.13 -3.75,0.73 -9.06,1.56 -16.51,2.35 -7.44,0.78 -17.02,1.5 -26.81,2.13 -9.79,0.62 -19.78,1.14 -28.53,1.25 -7.26,0.09 -13.67,-0.12 -22.19,-0.6l-39.01 32.7c-1.51,1.27 -3.5,1.53 -5.3,0.69 -1.79,-0.84 -2.87,-2.53 -2.87,-4.51l0 -32.35c-5.41,-0.5 -7.95,-0.85 -10.33,-1.29 -3.08,-0.58 -5.89,-1.31 -8.49,-2.61 -2.6,-1.3 -5,-3.17 -6.92,-4.99 -1.93,-1.83 -3.39,-3.6 -4.69,-5.99 -1.3,-2.4 -2.45,-5.42 -3.28,-9.11 -0.83,-3.7 -1.35,-8.07 -2.08,-16.77 -0.73,-8.69 -1.67,-21.71 -1.93,-33.63 -0.26,-11.92 0.16,-22.75 0.68,-32.48 0.52,-9.74 1.14,-18.38 1.98,-24.52 0.83,-6.15 1.87,-9.79 2.96,-12.45 1.1,-2.65 2.24,-4.32 3.75,-6.19 1.51,-1.88 3.39,-3.96 5.47,-5.63 2.08,-1.66 4.37,-2.91 6.92,-3.8 2.55,-0.88 5.36,-1.4 10.41,-2.08 4.95,-0.66 12.05,-1.47 29.14,-2.05 6.98,-2.68 17.87,-4.59 30.48,-5.14 -2.52,-3.46 -4.96,-6.76 -7.1,-9.5 -3.03,-3.9 -5.46,-6.67 -8.22,-9.57 -2.1,-2.21 -4.39,-4.48 -6.73,-6.77 -0.3,0.05 -0.61,0.07 -0.92,0.07 -3.38,0 -6.11,-2.73 -6.11,-6.11 0,-3.37 2.73,-6.11 6.11,-6.11 3.37,0 6.1,2.74 6.1,6.11 0,0.56 -0.07,1.11 -0.21,1.63 1.3,1.29 2.58,2.57 3.8,3.84 2.09,2.17 4.01,4.28 5.69,6.26 1.69,1.98 3.14,3.82 4.72,5.85 1.59,2.04 3.31,4.27 5.82,7.7 1.19,1.62 2.55,3.52 4.01,5.55 0.87,-1.6 1.68,-3.1 2.41,-4.44 2.05,-3.72 3.47,-6.15 4.78,-8.38 1.31,-2.22 2.51,-4.24 3.93,-6.41 1.42,-2.18 3.05,-4.53 4.85,-6.95 1.61,-2.18 3.36,-4.42 5.12,-6.66 -0.33,-0.75 -0.51,-1.58 -0.51,-2.45 0,-3.38 2.73,-6.11 6.11,-6.11zm-99.82 156.94c-0.58,-6.25 -1.1,-14.99 -1.2,-22.91 -0.11,-7.91 0.21,-14.99 0.68,-21.34 0.46,-6.35 1.09,-11.98 1.61,-16.3 0.52,-4.32 0.94,-7.34 1.77,-9.94 0.83,-2.6 2.08,-4.79 3.59,-6.56 1.51,-1.77 3.28,-3.13 5.16,-4.06 1.87,-0.94 3.85,-1.46 7.07,-2.03 3.23,-0.58 7.71,-1.2 13.85,-1.93 6.15,-0.73 13.96,-1.56 21.82,-2.03 7.86,-0.47 15.77,-0.57 23.42,-0.57 7.66,0 15.05,0.1 20.88,0.36 5.83,0.26 10.1,0.68 15.88,1.3 5.78,0.63 13.07,1.46 18.22,2.24 5.16,0.78 8.18,1.51 10.67,2.45 2.5,0.94 4.48,2.08 5.99,3.85 1.51,1.77 2.55,4.17 3.44,7.66 0.88,3.48 1.61,8.06 2.24,13.48 0.62,5.41 1.14,11.66 1.51,17.6 0.36,5.93 0.57,11.55 0.36,17.7 -0.21,6.14 -0.83,12.8 -1.35,18.22 -0.52,5.41 -0.94,9.58 -1.36,12.86 -0.41,3.28 -0.83,5.67 -1.66,7.86 -0.84,2.19 -2.08,4.16 -3.65,5.88 -1.56,1.72 -3.43,3.18 -5.57,4.11 -2.13,0.94 -4.53,1.36 -10.1,2.09 -5.57,0.73 -14.31,1.77 -23.06,2.44 -8.75,0.68 -17.49,0.99 -24.94,1.2 -7.44,0.21 -13.59,0.31 -22.44,-0.05 -8.85,-0.36 -20.4,-1.2 -28.47,-1.98 -8.07,-0.78 -12.66,-1.51 -16.3,-2.39 -3.64,-0.89 -6.35,-1.93 -8.49,-3.23 -2.13,-1.3 -3.69,-2.87 -4.89,-4.95 -1.2,-2.08 -2.03,-4.68 -2.76,-7.86 -0.73,-3.17 -1.35,-6.92 -1.92,-13.17zm106.92 -21.73l-24.2 14.2 -20.26 11.89c-2.63,1.54 -5.66,1.56 -8.31,0.04 -2.65,-1.52 -4.17,-4.14 -4.17,-7.2l0 -23.94 0 -23.94c0,-3.06 1.52,-5.68 4.17,-7.2 2.65,-1.52 5.68,-1.5 8.31,0.05l20.26 11.88 24.2 14.2c1.83,1.08 2.87,2.89 2.87,5.01 0,2.12 -1.04,3.93 -2.87,5.01z"/>
   <path class="fil2" style="mask:url(#id0)" d="M125.52 0c3.37,0 6.11,2.73 6.11,6.11 0,3.37 -2.74,6.11 -6.11,6.11l-0.05 0 0.01 0.01c-2.68,3.39 -5.36,6.78 -7.72,10.01 -2.37,3.23 -4.42,6.3 -6.93,10.55 -1.65,2.8 -3.5,6.11 -5.41,9.6 12.25,0.41 22.99,2.1 30.29,4.55 13.02,0.25 20.12,0.76 26.12,1.24 7.19,0.58 12.81,1.1 17.55,2.14 4.74,1.04 8.59,2.6 11.45,4.27 2.87,1.66 4.74,3.43 6.67,6.04 1.92,2.6 3.9,6.03 5.15,10.1 1.25,4.06 1.77,8.74 2.45,15.82 0.67,7.08 1.51,16.56 2.03,25.41 0.52,8.85 0.73,17.07 0.47,26.03 -0.26,8.95 -0.99,18.64 -1.67,26.13 -0.68,7.5 -1.3,12.81 -1.98,17.13 -0.67,4.32 -1.4,7.66 -2.55,10.78 -1.14,3.12 -2.7,6.04 -4.27,8.12 -1.56,2.08 -3.12,3.33 -4.79,4.43 -1.66,1.09 -3.43,2.03 -5.41,2.81 -1.98,0.78 -4.17,1.4 -7.91,2.13 -3.75,0.73 -9.06,1.56 -16.51,2.35 -7.44,0.78 -17.02,1.5 -26.81,2.13 -9.79,0.62 -19.78,1.14 -28.53,1.25 -7.26,0.09 -13.67,-0.12 -22.19,-0.6l-39.01 32.7c-1.51,1.27 -3.5,1.53 -5.3,0.69 -1.79,-0.84 -2.87,-2.53 -2.87,-4.51l0 -32.35c-5.41,-0.5 -7.95,-0.85 -10.33,-1.29 -3.08,-0.58 -5.89,-1.31 -8.49,-2.61 -2.6,-1.3 -5,-3.17 -6.92,-4.99 -1.93,-1.83 -3.39,-3.6 -4.69,-5.99 -1.3,-2.4 -2.45,-5.42 -3.28,-9.11 -0.83,-3.7 -1.35,-8.07 -2.08,-16.77 -0.73,-8.69 -1.67,-21.71 -1.93,-33.63 -0.26,-11.92 0.16,-22.75 0.68,-32.48 0.52,-9.74 1.14,-18.38 1.98,-24.52 0.83,-6.15 1.87,-9.79 2.96,-12.45 1.1,-2.65 2.24,-4.32 3.75,-6.19 1.51,-1.88 3.39,-3.96 5.47,-5.63 2.08,-1.66 4.37,-2.91 6.92,-3.8 2.55,-0.88 5.36,-1.4 10.41,-2.08 4.95,-0.66 12.05,-1.47 29.14,-2.05 6.98,-2.68 17.87,-4.59 30.48,-5.14 -2.52,-3.46 -4.96,-6.76 -7.1,-9.5 -3.03,-3.9 -5.46,-6.67 -8.22,-9.57 -2.1,-2.21 -4.39,-4.48 -6.73,-6.77 -0.3,0.05 -0.61,0.07 -0.92,0.07 -3.38,0 -6.11,-2.73 -6.11,-6.11 0,-3.37 2.73,-6.11 6.11,-6.11 3.37,0 6.1,2.74 6.1,6.11 0,0.56 -0.07,1.11 -0.21,1.63 1.3,1.29 2.58,2.57 3.8,3.84 2.09,2.17 4.01,4.28 5.69,6.26 1.69,1.98 3.14,3.82 4.72,5.85 1.59,2.04 3.31,4.27 5.82,7.7 1.19,1.62 2.55,3.52 4.01,5.55 0.87,-1.6 1.68,-3.1 2.41,-4.44 2.05,-3.72 3.47,-6.15 4.78,-8.38 1.31,-2.22 2.51,-4.24 3.93,-6.41 1.42,-2.18 3.05,-4.53 4.85,-6.95 1.61,-2.18 3.36,-4.42 5.12,-6.66 -0.33,-0.75 -0.51,-1.58 -0.51,-2.45 0,-3.38 2.73,-6.11 6.11,-6.11zm-99.82 156.94c-0.58,-6.25 -1.1,-14.99 -1.2,-22.91 -0.11,-7.91 0.21,-14.99 0.68,-21.34 0.46,-6.35 1.09,-11.98 1.61,-16.3 0.52,-4.32 0.94,-7.34 1.77,-9.94 0.83,-2.6 2.08,-4.79 3.59,-6.56 1.51,-1.77 3.28,-3.13 5.16,-4.06 1.87,-0.94 3.85,-1.46 7.07,-2.03 3.23,-0.58 7.71,-1.2 13.85,-1.93 6.15,-0.73 13.96,-1.56 21.82,-2.03 7.86,-0.47 15.77,-0.57 23.42,-0.57 7.66,0 15.05,0.1 20.88,0.36 5.83,0.26 10.1,0.68 15.88,1.3 5.78,0.63 13.07,1.46 18.22,2.24 5.16,0.78 8.18,1.51 10.67,2.45 2.5,0.94 4.48,2.08 5.99,3.85 1.51,1.77 2.55,4.17 3.44,7.66 0.88,3.48 1.61,8.06 2.24,13.48 0.62,5.41 1.14,11.66 1.51,17.6 0.36,5.93 0.57,11.55 0.36,17.7 -0.21,6.14 -0.83,12.8 -1.35,18.22 -0.52,5.41 -0.94,9.58 -1.36,12.86 -0.41,3.28 -0.83,5.67 -1.66,7.86 -0.84,2.19 -2.08,4.16 -3.65,5.88 -1.56,1.72 -3.43,3.18 -5.57,4.11 -2.13,0.94 -4.53,1.36 -10.1,2.09 -5.57,0.73 -14.31,1.77 -23.06,2.44 -8.75,0.68 -17.49,0.99 -24.94,1.2 -7.44,0.21 -13.59,0.31 -22.44,-0.05 -8.85,-0.36 -20.4,-1.2 -28.47,-1.98 -8.07,-0.78 -12.66,-1.51 -16.3,-2.39 -3.64,-0.89 -6.35,-1.93 -8.49,-3.23 -2.13,-1.3 -3.69,-2.87 -4.89,-4.95 -1.2,-2.08 -2.03,-4.68 -2.76,-7.86 -0.73,-3.17 -1.35,-6.92 -1.92,-13.17zm106.92 -21.73l-24.2 14.2 -20.26 11.89c-2.63,1.54 -5.66,1.56 -8.31,0.04 -2.65,-1.52 -4.17,-4.14 -4.17,-7.2l0 -23.94 0 -23.94c0,-3.06 1.52,-5.68 4.17,-7.2 2.65,-1.52 5.68,-1.5 8.31,0.05l20.26 11.88 24.2 14.2c1.83,1.08 2.87,2.89 2.87,5.01 0,2.12 -1.04,3.93 -2.87,5.01z"/>
  </g>
 </g>
</svg>
